<svg width="96" height="96" viewBox="0 0 96 96" xmlns="http://www.w3.org/2000/svg" role="img" aria-label="Docs">
  <defs>
    <linearGradient id="card" x1="0" y1="0" x2="0" y2="1">
      <stop offset="0" stop-color="#6B4EFF" stop-opacity="0.16"/>
      <stop offset="1" stop-color="#6B4EFF" stop-opacity="0.04"/>
    </linearGradient>
  </defs>
  <path d="M14 22a4 4 0 014-4h28v60H18a4 4 0 01-4-4V22z" fill="url(#card)" stroke="#6B4EFF" stroke-width="1.6"/>
  <path d="M82 22a4 4 0 00-4-4H50v60h28a4 4 0 004-4V22z" fill="url(#card)" stroke="#6B4EFF" stroke-width="1.6"/>
  <line x1="48" y1="18" x2="48" y2="78" stroke="#6B4EFF" stroke-width="1.4" stroke-opacity="0.55"/>
  <g stroke="#B5A8FF" stroke-width="1.6" stroke-linecap="round">
    <line x1="20" y1="32" x2="42" y2="32"/>
    <line x1="20" y1="40" x2="38" y2="40" opacity="0.7"/>
    <line x1="20" y1="48" x2="40" y2="48" opacity="0.7"/>
    <line x1="20" y1="56" x2="34" y2="56" opacity="0.55"/>
    <line x1="54" y1="32" x2="76" y2="32"/>
    <line x1="54" y1="40" x2="72" y2="40" opacity="0.7"/>
    <line x1="54" y1="48" x2="74" y2="48" opacity="0.7"/>
    <line x1="54" y1="56" x2="68" y2="56" opacity="0.55"/>
  </g>
</svg>
